<svg xmlns="http://www.w3.org/2000/svg" viewBox="0 0 120 120">
    <rect width="120" height="120" rx="30" fill="#4A1D96"/>
    <path d="M60 25C65 35 75 40 75 50" stroke="#4CAF50" stroke-width="6" stroke-linecap="round"/>
    
    <!-- Leaves -->
    <path d="M72 32C90 15 115 30 100 50C85 70 60 55 60 45C60 35 72 32 72 32Z" fill="#A5D6A7"/>
    <path d="M60 45C45 30 20 40 30 65C40 90 65 70 65 55C65 45 60 45 60 45Z" fill="#81C784"/>
    
    <!-- Grapes Layer 1 (Back) -->
    <circle cx="45" cy="55" r="14" fill="#E1BEE7"/>
    <circle cx="75" cy="55" r="14" fill="#CE93D8"/>
    
    <!-- Grapes Layer 2 (Middle) -->
    <circle cx="35" cy="75" r="14" fill="#BA68C8"/>
    <circle cx="60" cy="70" r="16" fill="#AB47BC"/>
    <circle cx="85" cy="75" r="14" fill="#9C27B0"/>
    
    <!-- Grapes Layer 3 (Lower) -->
    <circle cx="50" cy="90" r="15" fill="#8E24AA"/>
    <circle cx="70" cy="90" r="15" fill="#7B1FA2"/>
    
    <!-- Grapes Layer 4 (Bottom) -->
    <circle cx="60" cy="105" r="14" fill="#6A1B9A"/>
    
    <!-- Little shines to make it juicy -->
    <ellipse cx="42" cy="52" rx="3" ry="5" fill="#FFFFFF" opacity="0.4" transform="rotate(-30 42 52)"/>
    <ellipse cx="72" cy="52" rx="3" ry="5" fill="#FFFFFF" opacity="0.4" transform="rotate(-30 72 52)"/>
    <ellipse cx="32" cy="72" rx="3" ry="5" fill="#FFFFFF" opacity="0.4" transform="rotate(-30 32 72)"/>
    <ellipse cx="57" cy="67" rx="3" ry="5" fill="#FFFFFF" opacity="0.4" transform="rotate(-30 57 67)"/>
    <ellipse cx="82" cy="72" rx="3" ry="5" fill="#FFFFFF" opacity="0.4" transform="rotate(-30 82 72)"/>
    <ellipse cx="47" cy="87" rx="3" ry="5" fill="#FFFFFF" opacity="0.4" transform="rotate(-30 47 87)"/>
    <ellipse cx="67" cy="87" rx="3" ry="5" fill="#FFFFFF" opacity="0.4" transform="rotate(-30 67 87)"/>
    <ellipse cx="57" cy="102" rx="3" ry="5" fill="#FFFFFF" opacity="0.4" transform="rotate(-30 57 102)"/>
</svg>
